# xmcd
#
# Track frame offsets:
#  150
#  21206
#  43145
#  65954
#  86451
#  107756
#  127465
#  145667
#  165384
#  186819
#  207168
#  230093
#  250470
#  270410
#  289974
#
# Disc length: 4169 seconds
#
# Revision: 0
# Processed by: cddbd v1.4PL0 Copyright (c) Steve Scherf et al.
# Submitted via: AltoMP3_Maker 3.0
#
DISCID=e710470f
DTITLE=林忆莲 - 金装林忆莲经典金曲精选
DYEAR=1900
DGENRE=
TTITLE0=玫瑰
TTITLE1=理由
TTITLE2=爱上一个不回家的人
TTITLE3=还有
TTITLE4=当爱已成往事
TTITLE5=一分钟都市一分钟恋爱
TTITLE6=灰色
TTITLE7=不如重新开始
TTITLE8=醒醒
TTITLE9=倾斜
TTITLE10=前曾
TTITLE11=天大地大
TTITLE12=假如让你吻下去
TTITLE13=激情
TTITLE14=疯了
EXTD=
EXTT0=
EXTT1=
EXTT2=
EXTT3=
EXTT4=
EXTT5=
EXTT6=
EXTT7=
EXTT8=
EXTT9=
EXTT10=
EXTT11=
EXTT12=
EXTT13=
EXTT14=
PLAYORDER=
